<?xml version="1.0" standalone="no"?>
<!DOCTYPE svg PUBLIC "-//W3C//DTD SVG 20010904//EN"
 "http://www.w3.org/TR/2001/REC-SVG-20010904/DTD/svg10.dtd">
<svg version="1.0" xmlns="http://www.w3.org/2000/svg"
 width="500.000000pt" height="500.000000pt" viewBox="0 0 500.000000 500.000000"
 preserveAspectRatio="xMidYMid meet">
<metadata>
Created by potrace 1.11, written by Peter Selinger 2001-2013
</metadata>
<g transform="translate(0.000000,500.000000) scale(0.100000,-0.100000)"
fill="#000000" stroke="none">
<path d="M0 2500 l0 -2500 2500 0 2500 0 0 2500 0 2500 -2500 0 -2500 0 0
-2500z m2430 584 c65 -26 84 -74 77 -194 -7 -112 -27 -178 -71 -224 -84 -90
-266 -64 -296 42 -31 112 18 312 89 358 55 36 137 44 201 18z m-611 -96 c20
-178 19 -178 75 -29 l48 131 84 0 84 0 -1 -27 c0 -16 -13 -120 -27 -233 l-27
-205 -58 -3 c-42 -2 -57 0 -57 10 0 7 7 60 15 117 8 57 14 106 12 107 -2 2
-23 -50 -48 -116 l-44 -120 -61 0 -60 0 -15 128 -14 127 -13 -95 c-23 -174
-16 -160 -78 -160 -46 0 -54 3 -54 18 0 23 48 399 55 430 5 21 10 22 89 22
l84 0 11 -102z m876 -34 c11 -208 12 -209 73 -24 l53 160 60 0 c32 0 59 -3 59
-7 -1 -5 -38 -109 -84 -233 l-83 -225 -80 -3 -80 -3 -22 213 c-12 117 -24 223
-27 236 -4 21 -1 22 60 22 l64 0 7 -136z m401 119 c-2 -10 -17 -116 -32 -235
l-28 -218 -58 0 -59 0 6 33 c7 45 55 412 55 426 0 7 22 11 61 11 53 0 60 -2
55 -17z m359 -20 c-11 -65 -7 -63 -104 -63 l-89 0 -4 -40 -4 -40 73 0 c73 0
73 0 73 -27 0 -69 -6 -73 -85 -73 l-72 0 -7 -31 c-12 -60 -13 -59 85 -59 l92
0 -7 -31 c-3 -17 -6 -40 -6 -50 0 -18 -10 -19 -150 -19 l-151 0 6 33 c6 39 55
417 55 429 0 4 68 8 150 8 l151 0 -6 -37z m-1939 -648 c33 -21 56 -76 52 -123
l-3 -37 -57 -3 -58 -3 0 34 c0 40 -15 57 -50 57 -51 0 -78 -53 -87 -172 -5
-67 -3 -81 12 -98 10 -11 29 -20 42 -20 26 0 63 32 63 55 0 12 13 15 60 15
l59 0 -14 -46 c-18 -60 -56 -99 -110 -113 -62 -16 -104 -13 -152 8 -61 28 -78
66 -77 168 3 153 57 267 140 293 43 14 150 5 180 -15z m1831 6 c57 -26 76 -66
76 -158 -1 -116 -34 -223 -81 -266 -77 -70 -235 -55 -279 25 -43 79 -7 301 60
366 56 54 147 67 224 33z m418 -1 c49 -24 65 -53 65 -120 l0 -50 -55 0 c-52 0
-55 1 -55 26 0 41 -18 64 -49 64 -45 0 -71 -29 -87 -95 -30 -128 -11 -195 54
-195 36 0 48 9 56 43 6 25 4 27 -25 27 -30 0 -31 2 -25 31 3 17 6 40 6 50 0
17 9 19 85 19 l85 0 -1 -32 c0 -18 -6 -66 -12 -107 -14 -87 -31 -105 -117
-123 -120 -25 -207 17 -230 111 -21 87 15 255 68 315 48 54 163 72 237 36z
m-1881 -12 c5 -24 46 -414 46 -435 0 -9 -19 -13 -60 -13 -59 0 -60 1 -60 28 0
63 -9 73 -58 70 -45 -3 -46 -4 -61 -50 l-15 -48 -63 0 -63 0 24 63 c12 34 52
140 87 235 l63 172 78 0 c72 0 78 -1 82 -22z m450 -15 c-9 -62 -10 -63 -63
-63 -58 0 -52 13 -76 -180 -26 -208 -18 -190 -81 -190 -64 0 -61 -16 -34 186
27 200 30 184 -31 184 l-52 0 7 38 c3 20 6 43 6 50 0 9 40 12 164 12 l165 0
-5 -37z m286 34 c0 -1 11 -105 25 -231 14 -126 25 -230 25 -232 0 -2 -27 -4
-60 -4 l-59 0 -7 50 -7 51 -46 -3 c-44 -3 -46 -4 -62 -48 l-17 -45 -62 -3
c-48 -2 -61 0 -58 10 3 7 42 113 88 236 l82 222 79 0 c44 0 79 -1 79 -3z m260
-16 c0 -10 -9 -85 -20 -166 -28 -205 -34 -185 60 -185 87 0 84 2 74 -62 l-7
-38 -138 0 c-77 0 -139 4 -139 8 0 12 49 390 55 430 6 32 7 32 60 32 47 0 55
-3 55 -19z"/>
<path d="M2298 2983 c-30 -35 -39 -65 -45 -152 -5 -73 -3 -89 11 -104 31 -30
79 -20 101 22 7 15 19 64 25 109 9 65 8 88 -2 110 -16 34 -66 42 -90 15z"/>
<path d="M3205 2310 c-41 -45 -60 -223 -27 -253 49 -44 97 -8 117 88 20 97 19
148 -3 168 -25 23 -65 21 -87 -3z"/>
<path d="M1763 2221 c-28 -80 -28 -81 1 -81 32 0 32 2 26 80 l-5 65 -22 -64z"/>
<path d="M2515 2258 c-21 -57 -35 -102 -35 -109 0 -5 11 -9 25 -9 24 0 25 2
25 65 0 62 -5 80 -15 53z"/>
</g>
</svg>
